<svg width="214" height="214" xmlns="http://www.w3.org/2000/svg" version="1.1">
 <!-- Generator: Adobe Illustrator 29.3.1, SVG Export Plug-In . SVG Version: 2.1.0 Build 151)  -->
 <defs>
  <linearGradient y2="1.07109" x2="0.5" y1="-0.05332" x1="0.5" id="linear-gradient">
   <stop stop-color="#a9bcf5" offset="0"/>
   <stop stop-color="#2b4890" offset="1"/>
  </linearGradient>
 </defs>
 <g>
  <title>Layer 1</title>
  <g id="svg_3">
   <circle id="svg_1" fill="url(#linear-gradient)" r="106.9" cy="106.99999" cx="106.99999" class="st1"/>
   <path id="svg_2" fill="#fff" d="m194.49997,107.00001c0,-3 -0.09999,-6.10004 -0.39996,-9.10004l0,0c-0.20004,-2.29999 -0.60004,-4.5 -1,-6.69995l-7.20004,0c0.20004,1.19995 0.40004,2.39996 0.60001,3.59998l-23.49995,0l0,-15l-27.10005,0l-6.69995,-7.59998l13.89999,-13.10002l0,-23.90001c20,10.10001 34.79996,27.90002 41.10001,49.10001l7.29996,0c-6.79996,-25.10001 -24.39996,-46.10001 -48.39996,-57l0,0c0,0 -2.09999,-1 -2.09999,-1c-6.90001,-2.90001 -14.3,-4.90001 -21.9,-6c-5,-0.7 -10.10001,-0.90001 -15.20004,-0.8c-7.59998,0.3 -15.19995,1.5 -22.5,3.7c0,0 0,0 0,0l-2.39996,0.7l0,0.20001c-22.80002,7.7 -41.50002,24.39999 -51.50002,46.39998c-5.3,11.39999 -8,23.70004 -8,36.50003s0.2,6.49997 0.60001,9.70001l7,0c-0.40001,-3.20004 -0.60001,-6.40002 -0.60001,-9.70001c0,-11.10004 2.2,-21.60004 6.5,-31.60004l32.20003,0l0,13.60004l13.79999,0l0,14.49997l-19.60002,0l0,24.20004l-21,21.39999c-4.89999,-7.89999 -8.29999,-16.50003 -10.2,-25.50002l-7.09999,0c2.09999,10.8 6.2,21.2 12.2,30.60003l0,0c0,0 1.59999,2.39996 1.59999,2.39996c16.40001,23.70003 43.30003,37.89999 72.10002,37.89999s45.39997,-9.09999 61.89996,-25.60001l2.50002,-2.49998l-0.09998,0c15,-16.29997 23.29997,-37.19997 23.29997,-59.39997l-0.10001,0zm-38.39996,-20.29999l0,22.09998l-22.09999,0l0,-22.09998l22.09999,0zm-50.50002,-60.20003c1.10004,0 2.20001,0 3.30005,0c1.5,0 2.89996,0.10001 4.39999,0.2c1.10001,0 2.10001,0.2 3.19995,0.3c1.40005,0.2 2.90005,0.39999 4.30002,0.60001c1,0.2 1.90002,0.29999 2.90002,0.5c2.29999,0.5 4.49999,1 6.79995,1.7c0.60004,0.2 1.20004,0.39999 1.80005,0.59999c1.29996,0.40001 2.60002,0.90001 3.89999,1.40001l0,24.2l-13.1,12.39998l-21.79999,0l0,-15.39998l-15.20001,0l0,-23.8c0.49997,-0.09999 1,-0.3 1.49997,-0.39999c1.10004,-0.3 2.30005,-0.5 3.40002,-0.8c0.90002,-0.2 1.70001,-0.3 2.59998,-0.5c1.20001,-0.2 2.50003,-0.39999 3.70004,-0.5c0.79999,0 1.60001,-0.2 2.39999,-0.3c1.29999,-0.09999 2.70001,-0.2 4,-0.3c0.70001,0 1.39999,0 2.09998,0l-0.20001,0.10001zm-69.29999,41.99998c9.3,-17.09999 24.39999,-30.19998 42.59998,-36.99998l0,21.5l-13.79996,0l0,15.39998l-28.80002,0l0,0.10001zm35.80002,13.60004l0,-22.10001l22.10001,0l0,22.10001l-22.10001,0zm-5.80002,28.39996l19.59998,0l0,-21.39996l15.20001,0l0,-13.60004l21.70001,0l4.20001,4.80002l0,35.59998l17.09998,0l0,14.6l-13.70001,14.60004l-14.69999,0l0,-22.1l-36,0l0,12.89996l-13.30002,-8.49999l0,-16.79999l-0.09998,-0.10001zm42.40002,19.30001l0,22.09998l-22.10004,0l0,-22.09998l22.10004,0zm48.19994,40.40002c-1.09998,0.89999 -2.29999,1.70003 -3.39999,2.5c-0.89999,0.70001 -1.89999,1.3 -2.79999,2c-1.20001,0.79996 -2.39998,1.5 -3.59999,2.20003c-1,0.59993 -2,1.09998 -3,1.69994c-1.3,0.70004 -2.60002,1.20001 -3.89999,1.80005c-1,0.50002 -2,0.89999 -3.10001,1.39996c-1.40001,0.50003 -2.70001,1 -4.09998,1.50003c-1,0.29996 -2,0.7 -3.10005,1c-1.49998,0.39999 -2.99999,0.79999 -4.39999,1.10001c-1,0.19995 -2,0.50002 -3,0.69998c-0.79999,0.20001 -1.69998,0.30002 -2.49997,0.39996c-0.80002,0.10001 -1.70001,0.20004 -2.50003,0.30002c-0.89999,0.10005 -1.69998,0.30002 -2.60001,0.40002c-2.59998,0.20001 -5.19998,0.39996 -7.79999,0.39996s-6.5,-0.19995 -9.70001,-0.59996c-1.09998,-0.09998 -2.09998,-0.40004 -3.19998,-0.59999c-2.10001,-0.30002 -4.19998,-0.70001 -6.19998,-1.20001c-0.40002,0 -0.80002,-0.2 -1.20001,-0.29997c-0.79999,-0.30006 -1.70001,-0.50002 -2.5,-0.80003c-1.29999,-0.39999 -2.60001,-0.69998 -3.80002,-1.09999c-0.49997,-0.20003 -1.10001,-0.40004 -1.60001,-0.59999c-1.29999,-0.49998 -2.5,-1.10001 -3.69998,-1.60004c-1.70001,-0.69998 -3.30002,-1.39996 -4.89999,-2.20001c-1.29999,-0.59996 -2.40002,-1.39996 -3.70001,-2.10001c-1.5,-0.89999 -3,-1.69998 -4.5,-2.69998c-1.2,-0.79997 -2.3,-1.69998 -3.5,-2.59998c-1.39999,-1 -2.8,-2.10001 -4.10001,-3.2c-1.09999,-1 -2.09999,-2 -3.2,-3c-1.2,-1.20003 -2.5,-2.40004 -3.7,-3.7c-1,-1.10001 -1.89999,-2.3 -2.89999,-3.39998c-0.8,-1 -1.60001,-2 -2.3,-3l20.99998,-21.30006l16.30002,10.30006l0,14.89995l36,0l0,-7l17.69999,0l6.49998,-6.89995l21.50002,21.29997c-0.59999,0.59998 -1.19998,1.10001 -1.8,1.59998c-0.89999,0.79999 -1.79999,1.50003 -2.70001,2.20003l0,0.2zm-12.19995,-30.2l4.79996,-5.10005l0.60004,-0.69995l0,0s0.90001,-1 0.90001,-1l0,-17.40002l12,0l0,-14l24.3,0c0.10001,1.79999 0.29996,3.5 0.29996,5.30002c0,20.39996 -7.59996,39.49996 -21.29996,54.39996l-21.60001,-21.49995z" class="st0"/>
  </g>
 </g>
</svg>