<svg width="886" height="214" xmlns="http://www.w3.org/2000/svg" version="1.1">
 <!-- Generator: Adobe Illustrator 29.3.1, SVG Export Plug-In . SVG Version: 2.1.0 Build 151)  -->
 <defs>
  <linearGradient y2="1.07109" x2="0.5" y1="-0.05332" x1="0.5" id="linear-gradient">
   <stop stop-color="#a9bcf5" offset="0"/>
   <stop stop-color="#2b4890" offset="1"/>
  </linearGradient>
 </defs>
 <g>
  <title>Layer 1</title>
  <g id="svg_16">
   <g id="svg_1">
    <circle id="svg_2" fill="url(#linear-gradient)" r="106.9" cy="107" cx="107.35001" class="st3"/>
    <path id="svg_3" fill="#fff" d="m194.85002,107.00003c0,-3 -0.10002,-6.10004 -0.39999,-9.10004l0,0c-0.20003,-2.29999 -0.60001,-4.5 -1,-6.69995l-7.20003,0c0.20003,1.19995 0.39999,2.39996 0.60002,3.59998l-23.50003,0l0,-15l-27.09999,0l-6.69998,-7.59998l13.89999,-13.10004l0,-23.90001c20,10.10001 34.79999,27.90004 41.10002,49.10002l7.29999,0c-6.79999,-25.10002 -24.40001,-46.10002 -48.40001,-57.00002l0,0c0,0 -2.10002,-1 -2.10002,-1c-6.89998,-2.90001 -14.3,-4.90001 -21.89998,-6c-5,-0.7 -10.10002,-0.90001 -15.20001,-0.8c-7.60001,0.3 -15.20001,1.5 -22.5,3.7c0,0 0,0 0,0l-2.40001,0.7l0,0.20001c-22.8,7.7 -41.49999,24.39999 -51.49999,46.39999c-5.3,11.39999 -8,23.70004 -8,36.50003s0.2,6.49997 0.60001,9.70001l7,0c-0.40001,-3.20004 -0.60001,-6.40002 -0.60001,-9.70001c0,-11.10004 2.2,-21.60004 6.5,-31.60004l32.2,0l0,13.60004l13.8,0l0,14.49997l-19.59998,0l0,24.20004l-21,21.39999c-4.90001,-7.89999 -8.3,-16.50003 -10.20001,-25.50003l-7.09999,0c2.09999,10.79999 6.2,21.20001 12.2,30.60004l0,0c0,0 1.60001,2.39996 1.60001,2.39996c16.39999,23.70001 43.29998,37.89999 72.09998,37.89999s45.40001,-9.10001 61.90001,-25.60001l2.5,-2.5l-0.10001,0c15,-16.29996 23.30003,-37.19995 23.30003,-59.39996l-0.10001,0zm-38.40001,-20.29999l0,22.09998l-22.10002,0l0,-22.09998l22.10002,0zm-50.39999,-60.20004c1.10001,0 2.20001,0 3.29997,0c1.50002,0 2.90004,0.10001 4.40004,0.2c1.09998,0 2.09998,0.2 3.19998,0.3c1.39998,0.2 2.89999,0.39999 4.30002,0.60001c1,0.2 1.89999,0.29999 2.89999,0.5c2.29999,0.5 4.5,1 6.79999,1.7c0.60001,0.2 1.20001,0.39999 1.80002,0.59999c1.29999,0.40001 2.59996,0.90001 3.89999,1.40001l0,24.2l-13.10001,12.39999l-21.79999,0l0,-15.39999l-15.20001,0l0,-23.8c0.5,-0.09999 1,-0.3 1.5,-0.39999c1.10001,-0.3 2.3,-0.5 3.39999,-0.8c0.90001,-0.2 1.70001,-0.3 2.60001,-0.5c1.19998,-0.2 2.5,-0.39999 3.69998,-0.5c0.80002,0 1.59999,-0.2 2.40002,-0.3c1.29999,-0.09999 2.69998,-0.2 4,-0.3c0.69998,0 1.39999,0 2.10001,0l-0.20001,0.10001zm-69.4,42c9.3,-17.10001 24.40001,-30.2 42.59998,-37l0,21.5l-13.8,0l0,15.39999l-28.79999,0l0,0.10001zm35.8,13.60004l0,-22.10002l22.09998,0l0,22.10002l-22.09998,0zm-5.8,28.39996l19.60001,0l0,-21.39996l15.20001,0l0,-13.60004l21.69998,0l4.20001,4.80002l0,35.59998l17.10001,0l0,14.60001l-13.70001,14.60004l-14.70001,0l0,-22.10001l-35.99998,0l0,12.89996l-13.30001,-8.5l0,-16.79999l-0.10001,-0.10001zm42.4,19.30002l0,22.09998l-22.10001,0l0,-22.09998l22.10001,0zm48.20001,40.40002c-1.10001,0.89999 -2.29999,1.70001 -3.39999,2.5c-0.89999,0.70001 -1.89999,1.29999 -2.80002,2c-1.19998,0.79996 -2.39999,1.5 -3.59998,2.20001c-1,0.59995 -2,1.09998 -3,1.69995c-1.30002,0.70004 -2.60001,1.20001 -3.90002,1.80005c-1,0.5 -2,0.89999 -3.09998,1.39996c-1.40002,0.50003 -2.70001,1 -4.10001,1.50003c-1,0.29996 -2,0.69998 -3.10001,1c-1.5,0.39999 -3,0.79999 -4.39999,1.10001c-1,0.19995 -2,0.5 -3,0.69998c-0.80002,0.20001 -1.70001,0.30002 -2.5,0.39996c-0.80002,0.10001 -1.70001,0.20004 -2.5,0.30002c-0.89999,0.10004 -1.70001,0.30002 -2.60001,0.40002c-2.60001,0.20001 -5.20001,0.39996 -7.79999,0.39996s-6.5,-0.19995 -9.70001,-0.59998c-1.10001,-0.09998 -2.10001,-0.40002 -3.2,-0.59998c-2.10001,-0.30002 -4.20001,-0.70001 -6.20001,-1.20001c-0.39999,0 -0.79999,-0.20001 -1.2,-0.29999c-0.8,-0.30005 -1.7,-0.5 -2.5,-0.80002c-1.3,-0.39999 -2.59999,-0.69998 -3.8,-1.10001c-0.5,-0.20001 -1.09999,-0.40002 -1.59999,-0.59998c-1.3,-0.5 -2.5,-1.10001 -3.7,-1.60004c-1.70001,-0.69998 -3.3,-1.39996 -4.90002,-2.20001c-1.3,-0.59998 -2.39999,-1.39996 -3.7,-2.10001c-1.5,-0.89999 -3,-1.69998 -4.5,-2.69998c-1.2,-0.79999 -2.3,-1.69998 -3.5,-2.59998c-1.39999,-1 -2.8,-2.10001 -4.10001,-3.20001c-1.09999,-1 -2.09999,-2 -3.2,-3c-1.2,-1.20001 -2.5,-2.40002 -3.7,-3.69998c-1,-1.10001 -1.89999,-2.30002 -2.89999,-3.39999c-0.8,-1 -1.60001,-2 -2.3,-3l21,-21.30005l16.30001,10.30005l0,14.89996l35.99998,0l0,-7l17.70001,0l6.5,-6.89996l21.5,21.29999c-0.60001,0.59998 -1.20001,1.10001 -1.79999,1.59998c-0.90002,0.79999 -1.80002,1.50003 -2.70001,2.20001l0,0.20001zm-12.20001,-30.20001l4.79999,-5.10004l0.60001,-0.69995l0,0s0.89998,-1 0.89998,-1l0,-17.40002l12,0l0,-14l24.30005,0c0.09999,1.79999 0.29999,3.5 0.29999,5.30002c0,20.39996 -7.60005,39.49997 -21.3,54.39996l-21.60001,-21.49997z" class="st0"/>
   </g>
   <g id="svg_4">
    <path id="svg_5" fill="#2b4890" d="m238.65004,150.39999l39.2,-90.2l0.89999,0l39.20001,90.2l-19.80002,0l-25,-63.39996l12.39999,-8.50003l-30,71.89999l-16.89998,0zm26.79997,-31.39996l26.10001,0l6,14.39996l-37.40002,0l5.30002,-14.39996z" class="st2"/>
    <path id="svg_6" fill="#2b4890" d="m346.05002,151.5l-30.89999,-52.60001l19.60001,0l17.59998,35.60001l-10.09998,-0.39996l15.20001,-35.30002l18.39996,0l-29.19998,52.59998l-0.5,0l-0.10001,0.10001z" class="st2"/>
    <path id="svg_7" fill="#2b4890" d="m385.14999,80.60001c0,-2.39996 1,-4.39996 2.90002,-6c1.89996,-1.59998 4,-2.39996 6.19995,-2.39996s4.20001,0.79999 6.10004,2.39996c1.79999,1.60004 2.79999,3.60004 2.79999,6s-0.90002,4.40002 -2.79999,6c-1.79999,1.50003 -3.90002,2.30005 -6.10004,2.30005s-4.29999,-0.80002 -6.19995,-2.30005c-1.90002,-1.49997 -2.90002,-3.49997 -2.90002,-6zm0.30005,18.29999l16.5,0l0,51.5l-16.5,0l0,-51.5z" class="st2"/>
    <path id="svg_8" fill="#2b4890" d="m440.64999,151.80002c-4.79999,0 -9.09998,-1 -13,-2.90002c-3.90002,-1.89996 -7,-4.89996 -9.29999,-8.89996c-2.29999,-4 -3.40002,-9.10004 -3.40002,-15.30002s1.20001,-10.80002 3.5,-15.10001c2.40002,-4.20001 5.5,-7.5 9.29999,-9.79999s7.90002,-3.5 12.30005,-3.5s9,0.79999 11.59998,2.5c2.59998,1.69998 4.79996,3.59998 6.49997,5.59998l-0.70001,2l1.5,-7.5l15.29999,0l0,51.5l-16.5,0l0,-11.19998l1.30005,3.5c-0.20001,0 -0.60004,0.5 -1.40002,1.39999c-0.79999,0.90002 -1.90002,2 -3.49997,3.20001c-1.5,1.19998 -3.40002,2.29999 -5.70001,3.19998c-2.20001,0.89999 -4.89996,1.39999 -8,1.39999l0.20001,-0.09998zm4.70001,-13.40002c2,0 3.70001,-0.29999 5.29999,-0.89999c1.60004,-0.60001 2.90002,-1.49997 4.10004,-2.60001s2.19992,-2.59998 3.09995,-4.29999l0,-12.59998c-0.59998,-1.70001 -1.59998,-3.20001 -2.79999,-4.40002c-1.29996,-1.20001 -2.79996,-2.20001 -4.49997,-2.79999c-1.70001,-0.70001 -3.70001,-1 -5.79999,-1s-4.5,0.59998 -6.5,1.79999c-2,1.20001 -3.60004,2.89999 -4.80005,5c-1.19995,2.10001 -1.79999,4.60001 -1.79999,7.29999s0.60004,5.20001 1.90002,7.40002c1.29999,2.19998 2.89996,3.89999 5,5.19998c2.09998,1.30002 4.29999,1.89999 6.79999,1.89999z" class="st2"/>
    <path id="svg_9" fill="#2b4890" d="m496.14996,76.20004l16.5,0l0,22.39996l12.5,0l0,12.89999l-12.5,0l0,38.90005l-16.5,0l0,-38.90005l-8,0l0,-12.89999l8,0l0,-22.39996z" class="st2"/>
    <path id="svg_10" fill="#2b4890" d="m537.45001,80.60001c0,-2.39996 1,-4.39996 2.90002,-6c1.89996,-1.59998 4,-2.39996 6.19995,-2.39996s4.20001,0.79999 6.10004,2.39996c1.79999,1.60004 2.79999,3.60004 2.79999,6s-0.90002,4.40002 -2.79999,6c-1.79999,1.50003 -3.90002,2.30005 -6.10004,2.30005s-4.29999,-0.80002 -6.19995,-2.30005c-1.90002,-1.49997 -2.90002,-3.49997 -2.90002,-6zm0.39996,18.29999l16.5,0l0,51.5l-16.5,0l0,-51.5z" class="st2"/>
    <path id="svg_11" fill="#2b4890" d="m567.34998,124.00003c0,-5.29999 1.20001,-10 3.70001,-14.20001c2.5,-4.20001 6,-7.40002 10.39996,-9.79999c4.5,-2.40002 9.60004,-3.60004 15.40002,-3.60004s11,1.20001 15.29999,3.60004c4.29999,2.39996 7.60004,5.70001 10,9.79999c2.29999,4.20001 3.5,8.90002 3.5,14.20001s-1.20001,10 -3.5,14.20001s-5.59998,7.5 -10,10c-4.29999,2.39996 -9.5,3.69995 -15.59998,3.69995s-10.70001,-1.09998 -15.20001,-3.29999c-4.40002,-2.20001 -7.90002,-5.39996 -10.40002,-9.59998s-3.79999,-9.20001 -3.79999,-15l0.20001,0zm16.60004,0.10001c0,2.69998 0.5,5.10001 1.70001,7.30002c1.09998,2.19995 2.59998,3.89999 4.5,5.09995c1.89996,1.30002 4,1.90005 6.39996,1.90005s4.80005,-0.60004 6.70001,-1.90005c1.90002,-1.29996 3.29999,-3 4.40002,-5.09995c1,-2.20001 1.5,-4.60004 1.5,-7.30002s-0.5,-5.19998 -1.5,-7.30002c-1,-2.09998 -2.5,-3.79999 -4.40002,-5.09998c-1.89996,-1.29999 -4.09998,-1.90002 -6.70001,-1.90002s-4.5,0.60004 -6.39996,1.90002c-1.90002,1.29999 -3.40002,2.89996 -4.5,5.09998c-1.10004,2.10004 -1.70001,4.60004 -1.70001,7.30002z" class="st2"/>
    <path id="svg_12" fill="#2b4890" d="m653.64996,98.89999l1.29999,9.20001l-0.20001,-0.79999c1.80005,-3.20001 4.40002,-5.80002 7.70001,-7.80002c3.29999,-2 7.40002,-3 12.10004,-3s8.89996,1.39999 12.19995,4.30002c3.30005,2.89999 4.90002,6.59998 5,11.09998l0,38.60001l-16.5,0l0,-32.39999c0,-2.29999 -0.69995,-4.09998 -1.79999,-5.5c-1.09998,-1.39999 -3,-2.10001 -5.70001,-2.10001s-4.69995,0.80002 -6.59998,2.50003s-3.29999,3.89996 -4.40002,6.69998s-1.5,6.10001 -1.5,9.79999l0,21l-16.5,0l0,-51.49997l15,0l-0.09998,-0.10004z" class="st2"/>
    <path id="svg_13" fill="#a9bcf5" d="m701.64996,150.39999l39.20001,-90.2l0.89996,0l39.20001,90.2l-19.79999,0l-25,-63.39996l12.40002,-8.50003l-30,71.89999l-16.90002,0zm26.70001,-31.39996l26.09998,0l6,14.39996l-37.39996,0l5.29999,-14.39996z" class="st1"/>
    <path id="svg_14" fill="#a9bcf5" d="m819.75,63.60001c7.20001,0 13.20001,1.20001 18.20001,3.60004c5,2.39996 8.70001,5.79999 11.29999,10.10001c2.59998,4.39999 3.90002,9.49997 3.90002,15.49997s-0.5,7.10004 -1.60004,10.69998c-1.09998,3.60004 -2.79999,6.80005 -5.09998,9.70004c-2.29999,2.89999 -5.40002,5.20001 -9.29999,7c-3.90002,1.79999 -8.70001,2.70001 -14.30005,2.70001l-12.29999,0l0,27.5l-17.09998,0l0,-86.80005l26.29999,0zm3,42.70001c2.59998,0 4.79999,-0.5 6.5,-1.40002c1.70001,-0.89996 3.09998,-2 4.09998,-3.39999c1,-1.39999 1.70001,-2.79999 2.10004,-4.29999c0.39996,-1.5 0.59998,-2.80002 0.59998,-3.89999s-0.09998,-2 -0.39996,-3.5c-0.30005,-1.5 -0.80005,-2.90002 -1.70001,-4.40002c-0.90002,-1.5 -2.20001,-2.79999 -4,-3.79999c-1.79999,-1 -4.10004,-1.5 -7.10004,-1.5l-12.29999,0l0,26.20001l12.10004,0l0.09998,0z" class="st1"/>
    <path id="svg_15" fill="#a9bcf5" d="m868.45001,63.60001l17.09998,0l0,86.80005l-17.09998,0l0,-86.80005z" class="st1"/>
   </g>
  </g>
 </g>
</svg>